<?xml version="1.0" encoding="utf-8"?>
<!-- Generator: Adobe Illustrator 21.1.0, SVG Export Plug-In . SVG Version: 6.00 Build 0)  -->
<svg version="1.1" id="Layer_1" xmlns="http://www.w3.org/2000/svg" xmlns:xlink="http://www.w3.org/1999/xlink" x="0px" y="0px"
	 viewBox="0 0 1200 800" style="enable-background:new 0 0 1200 800;" xml:space="preserve">
<style type="text/css">
	.st0{fill:#00B44B;}
	.st1{fill:#FFFFFF;}
</style>
<g>
	<circle class="st0" cx="601" cy="401" r="400"/>
	<g>
		<g>
			<path class="st1" d="M662.3,143c34.3,0,51.4,23.4,51.4,50.1c0,33.4-29.8,64.3-68.6,64.3c-32.5,0-51.4-19.2-50.5-50.9
				C594.6,179.7,617.2,143,662.3,143z M556.7,655c-27.1,0-46.9-16.7-28-90.2l31.1-130.3c5.4-20.9,6.3-29.2,0-29.2
				c-8.1,0-43.3,14.4-64.1,28.6l-13.5-22.6c65.9-55.9,141.6-88.8,174.1-88.8c27.1,0,31.6,32.6,18,82.7l-35.6,137
				c-6.3,24.2-3.6,32.6,2.7,32.6c8.1,0,34.7-10,60.9-30.9l15.3,20.9C653.7,629.9,583.8,655,556.7,655z"/>
		</g>
	</g>
</g>
</svg>
